<svg width="21" height="30" viewBox="0 0 21 30" fill="none" xmlns="http://www.w3.org/2000/svg">
<path d="M1.45825 6.10421C1.45825 4.90521 1.93455 3.75532 2.78237 2.9075C3.63019 2.05967 4.78009 1.58337 5.97909 1.58337H10.4999V10.625H5.97909C4.78009 10.625 3.63019 10.1487 2.78237 9.30092C1.93455 8.4531 1.45825 7.30321 1.45825 6.10421Z" stroke="black" strokeWidth="2" stroke-linecap="round" stroke-linejoin="round"/>
<path d="M10.5 1.58337H15.0208C15.6145 1.58337 16.2024 1.70031 16.7509 1.9275C17.2994 2.1547 17.7977 2.4877 18.2175 2.9075C18.6373 3.32729 18.9703 3.82567 19.1975 4.37416C19.4247 4.92265 19.5417 5.51052 19.5417 6.10421C19.5417 6.69789 19.4247 7.28576 19.1975 7.83426C18.9703 8.38275 18.6373 8.88112 18.2175 9.30092C17.7977 9.72072 17.2994 10.0537 16.7509 10.2809C16.2024 10.5081 15.6145 10.625 15.0208 10.625H10.5V1.58337Z" stroke="black" strokeWidth="2" stroke-linecap="round" stroke-linejoin="round"/>
<path d="M10.5 15.1458C10.5 14.5521 10.6169 13.9643 10.8441 13.4158C11.0713 12.8673 11.4043 12.3689 11.8241 11.9491C12.2439 11.5293 12.7423 11.1963 13.2908 10.9691C13.8393 10.7419 14.4271 10.625 15.0208 10.625C15.6145 10.625 16.2024 10.7419 16.7509 10.9691C17.2994 11.1963 17.7977 11.5293 18.2175 11.9491C18.6373 12.3689 18.9703 12.8673 19.1975 13.4158C19.4247 13.9643 19.5417 14.5521 19.5417 15.1458C19.5417 15.7395 19.4247 16.3274 19.1975 16.8759C18.9703 17.4244 18.6373 17.9227 18.2175 18.3425C17.7977 18.7623 17.2994 19.0953 16.7509 19.3225C16.2024 19.5497 15.6145 19.6667 15.0208 19.6667C14.4271 19.6667 13.8393 19.5497 13.2908 19.3225C12.7423 19.0953 12.2439 18.7623 11.8241 18.3425C11.4043 17.9227 11.0713 17.4244 10.8441 16.8759C10.6169 16.3274 10.5 15.7395 10.5 15.1458Z" stroke="black" strokeWidth="2" stroke-linecap="round" stroke-linejoin="round"/>
<path d="M1.45825 24.1875C1.45825 22.9885 1.93455 21.8386 2.78237 20.9907C3.63019 20.1429 4.78009 19.6666 5.97909 19.6666H10.4999V24.1875C10.4999 25.3865 10.0236 26.5364 9.1758 27.3842C8.32798 28.232 7.17809 28.7083 5.97909 28.7083C4.78009 28.7083 3.63019 28.232 2.78237 27.3842C1.93455 26.5364 1.45825 25.3865 1.45825 24.1875Z" stroke="black" strokeWidth="2" stroke-linecap="round" stroke-linejoin="round"/>
<path d="M1.45825 15.1458C1.45825 13.9468 1.93455 12.7969 2.78237 11.9491C3.63019 11.1013 4.78009 10.625 5.97909 10.625H10.4999V19.6667H5.97909C4.78009 19.6667 3.63019 19.1904 2.78237 18.3425C1.93455 17.4947 1.45825 16.3448 1.45825 15.1458Z" stroke="black" strokeWidth="2" stroke-linecap="round" stroke-linejoin="round"/>
</svg>
